<?xml version="1.0" standalone="no"?>
<!DOCTYPE svg PUBLIC "-//W3C//DTD SVG 1.1//EN" "http://www.w3.org/Graphics/SVG/1.1/DTD/svg11.dtd" >
<svg xmlns="http://www.w3.org/2000/svg" xmlns:xlink="http://www.w3.org/1999/xlink" version="1.1">
<metadata></metadata>
<defs>
<font id="eaton_mediumregular" horiz-adv-x="1118" >
<font-face units-per-em="2048" ascent="1569" descent="-479" />
<missing-glyph horiz-adv-x="471" />
<glyph unicode="&#xfb01;" horiz-adv-x="980" d="M41 842v145h117v111q0 72 22.5 134.5t69.5 114t129.5 81.5t193.5 30q39 0 78 -2.5t68 -6.5t51.5 -8t36 -6.5t14.5 -2.5v-152q-9 3 -33 8.5t-79 13t-107 7.5q-127 0 -196.5 -65t-69.5 -177v-80h543v-987h-181v842h-362v-842h-178v842h-117z" />
<glyph unicode="&#xfb02;" horiz-adv-x="999" d="M41 842v145h117v105q0 71 22 133t69.5 116t132.5 85.5t200 31.5q167 0 315 -37v-1421h-178v1292q-85 17 -162 17q-106 0 -163.5 -55t-57.5 -162v-1v-1v-1v-1v-1v-1v-1v-1v-1v-1v-1v-1v-1v-1v-1v-1v-1v-1v-1v-1v-1v-2v-1v-1v-1v-2v-1v-1v-2v-1v-1v-2v-1v-2v-1v-2v-1v-2v-1 v-2v-2v-1v-2v-2v-1v-2v-2v-2v-1v-2v-2v-2v-2v-2v-2v-1v-2v-3v-2v-2v-2v-2v-2v-2v-3v-9h252v-145h-252v-842h-178v842h-117z" />
<glyph horiz-adv-x="0" />
<glyph horiz-adv-x="682" />
<glyph unicode=" "  horiz-adv-x="471" />
<glyph unicode="&#x09;" horiz-adv-x="471" />
<glyph unicode="&#xa0;" horiz-adv-x="471" />
<glyph unicode="!" horiz-adv-x="514" d="M143 82q0 47 34 81t81 34q46 0 79.5 -34t33.5 -81q0 -46 -33.5 -79.5t-79.5 -33.5q-47 0 -81 33.5t-34 79.5zM170 432v1018h176v-1018h-176z" />
<glyph unicode="&#x22;" horiz-adv-x="634" d="M82 1069v381h121v-381h-121zM391 1069v381h121v-381h-121z" />
<glyph unicode="#" d="M72 420v117h186l45 311h-172v117h188l62 440h154l-62 -440h248l61 440h154l-62 -440h173v-117h-189l-45 -311h174v-117h-190l-60 -420h-153l59 420h-248l-59 -420h-154l60 420h-170zM410 532h252l45 318h-252z" />
<glyph unicode="$" d="M166 1022q0 113 83.5 203t225.5 114v127h162v-110q141 0 256 -33v-170q-125 47 -260 47q-129 0 -206 -49t-77 -125q0 -31 12 -58t28 -44.5t46 -35.5t51 -27.5t58 -24.5q11 -4 35 -14.5t49.5 -21.5t27.5 -12q63 -28 111 -59.5t91.5 -76t67 -105t23.5 -133.5 q0 -67 -22.5 -125.5t-57 -97.5t-78 -69t-82.5 -45t-73 -20v-131h-162v111h-8q-42 0 -85 4t-78 10.5t-60 11.5t-46 11l-22 6v176q10 -6 45 -19t105 -28.5t135 -15.5q145 0 225 56t80 154q0 125 -186 211q-84 37 -107 45q-48 19 -82 35.5t-80 48.5t-74.5 68t-49.5 91t-21 120z " />
<glyph unicode="%" horiz-adv-x="1441" d="M82 1024q0 129 90.5 219t218.5 90t218.5 -90t90.5 -219q0 -127 -90.5 -217t-218.5 -90t-218.5 90t-90.5 217zM227 1024q0 -68 48.5 -116t115.5 -48t115.5 48t48.5 116t-48.5 116t-115.5 48t-115.5 -48t-48.5 -116zM250 0l842 1405h161l-841 -1405h-162zM741 287 q0 127 91 218t219 91q127 0 218 -91t91 -218q0 -129 -90.5 -219.5t-218.5 -90.5t-219 90.5t-91 219.5zM887 287q0 -67 48.5 -115.5t115.5 -48.5t115 48t48 116t-48 116t-115 48t-115.5 -48.5t-48.5 -115.5z" />
<glyph unicode="&#x26;" horiz-adv-x="1329" d="M102 313q0 59 18 111.5t54.5 98.5t70.5 78.5t87 74.5q53 43 98 82l-72 88q-96 120 -96 258q0 57 22.5 112.5t64.5 102t110.5 75.5t152.5 29q82 0 149 -28.5t107.5 -73t62 -94.5t21.5 -97q0 -93 -37 -155.5t-127 -134.5q-34 -29 -112 -95l274 -333q47 43 105.5 107 t72.5 83q8 -8 64 -60t63 -59q-117 -126 -200 -198q18 -24 233 -285h-227l-135 164q-17 -16 -42 -35.5t-41 -30.5l-16 -12q-69 -55 -149.5 -86t-190.5 -31q-187 0 -286 97.5t-99 246.5zM291 319q0 -80 56 -138t151 -58q43 0 85.5 13.5t86.5 41.5t74 51.5t77 63.5 q-171 204 -282 342q-18 -15 -76 -62.5t-70 -56.5q-63 -52 -82.5 -100t-19.5 -97zM442 1110q0 -77 76 -170q18 -23 55 -68l76 64q41 33 62.5 54t40 58t18.5 80q0 52 -44 98t-118 46q-69 0 -117.5 -46.5t-48.5 -115.5z" />
<glyph unicode="'" horiz-adv-x="325" d="M82 1069v381h121v-381h-121z" />
<glyph unicode="(" horiz-adv-x="653" d="M123 600q0 460 270 836q7 10 10 14h168q-44 -53 -85.5 -127.5t-84.5 -180.5t-69.5 -248t-26.5 -294t26.5 -294t69.5 -248t84.5 -180.5t85.5 -127.5h-168q-69 100 -90 137q-190 322 -190 713z" />
<glyph unicode=")" horiz-adv-x="653" d="M82 -242q44 53 86.5 127.5t85.5 180.5t69.5 248t26.5 294t-26.5 294t-69.5 248t-85.5 180.5t-86.5 127.5h168q3 -4 10 -14q270 -376 270 -836q0 -129 -22 -252t-51 -208t-71 -168t-67.5 -122.5t-55.5 -81.5q-9 -13 -13 -18h-168z" />
<glyph unicode="*" horiz-adv-x="825" d="M82 1169l37 115l235 -78v244h121v-248l232 76l36 -115l-235 -76l143 -196l-98 -72l-145 201l-142 -197l-98 70l145 201z" />
<glyph unicode="+" d="M57 481v162h420v481h162v-481h420v-162h-420v-481h-160v481h-422z" />
<glyph unicode="," horiz-adv-x="423" d="M41 -168l141 369h180l-204 -369h-117z" />
<glyph unicode="-" horiz-adv-x="743" d="M143 481v162h519v-162h-519z" />
<glyph unicode="." horiz-adv-x="432" d="M123 82q0 47 34 81t81 34q46 0 79 -34t33 -81q0 -46 -33 -79.5t-79 -33.5q-47 0 -81 33.5t-34 79.5z" />
<glyph unicode="/" horiz-adv-x="888" d="M0 -145l625 1595h182l-627 -1595h-180z" />
<glyph unicode="0" d="M82 700q0 161 27.5 287.5t72.5 206t107.5 131.5t128.5 73t141 21q230 0 353.5 -190t123.5 -535q0 -343 -124.5 -531t-352.5 -188q-220 0 -348.5 180.5t-128.5 544.5zM272 696q0 -169 29 -292t94.5 -196t163.5 -73t163.5 73t94.5 195t29 289q0 46 -2 89t-9 102.5 t-18.5 109t-33.5 100.5t-51.5 86.5t-73.5 58t-99 22.5q-78 0 -135 -45t-89.5 -125t-47.5 -178t-15 -216z" />
<glyph unicode="1" d="M250 0v145h235v1112h-225v148h404v-1260h202v-145h-616z" />
<glyph unicode="2" d="M154 0v156l450 585q52 69 78 108t48 93.5t22 106.5q0 86 -69 147t-208 61q-131 0 -268 -61v178q15 6 49.5 15.5t100 20.5t120.5 11q108 0 192.5 -24.5t134 -61.5t81.5 -87t43.5 -96t11.5 -93q0 -63 -17 -123.5t-51.5 -120t-63 -99.5t-74.5 -99q-10 -13 -15 -19 q-121 -154 -344 -444v-9h588v-145h-809z" />
<glyph unicode="3" d="M131 18v170q13 -6 46.5 -17.5t95.5 -23.5t116 -12q157 0 240.5 74.5t83.5 187.5q0 114 -83 189.5t-243 75.5h-80v145h80q57 0 106 11.5t91.5 36.5t67 70.5t24.5 108.5q0 57 -22.5 101t-60.5 70t-84.5 39t-98.5 13q-116 0 -222 -53v174q1 0 14 5t25 9.5t34 10.5t45 10 t54.5 7t63.5 3q197 0 319.5 -102t122.5 -270q0 -225 -219 -310v-8q41 -6 83 -30t82 -64t65.5 -106.5t25.5 -147.5q0 -173 -138.5 -291.5t-348.5 -118.5q-178 0 -285 43z" />
<glyph unicode="4" d="M90 326v166l580 913h239v-934h121v-145h-121v-326h-178v326h-641zM270 471h461v705h-6z" />
<glyph unicode="5" d="M215 664v741h672v-148h-494v-401q4 1 24.5 5t53.5 7.5t59 3.5q62 0 124 -15t122 -49.5t106 -85t74.5 -127t28.5 -169.5q0 -196 -136.5 -323.5t-377.5 -127.5q-22 0 -48.5 2.5t-49.5 6t-47.5 8.5t-40 8.5t-31 7.5t-16.5 4v176l8 -4q7 -3 15 -6t22 -8.5t28 -10t32.5 -9 t37 -8t41 -5.5t43.5 -2q140 0 235 80t95 209q0 126 -91 206.5t-245 80.5q-33 0 -66.5 -4t-63 -10.5t-49 -12t-42 -13t-23.5 -7.5z" />
<glyph unicode="6" d="M90 446q0 127 38.5 259.5t82.5 222.5t123.5 200.5t112.5 148t99 109.5q10 12 15 17h232q-70 -63 -152 -157.5t-168 -228t-117 -243.5l2 -2q118 59 213 59q194 0 325.5 -115.5t131.5 -305.5q0 -194 -125 -314.5t-344 -120.5q-204 0 -336.5 128.5t-132.5 342.5zM281 403 q0 -115 76.5 -191.5t199.5 -76.5q127 0 205 76.5t78 191.5q0 48 -17 94t-50 85.5t-89 63.5t-127 24q-126 0 -201 -79t-75 -188z" />
<glyph unicode="7" d="M162 1249v148h792v-137l-540 -1268h-197l543 1257h-598z" />
<glyph unicode="8" d="M86 375q0 74 20.5 137t50.5 103t69 70t72.5 44t63.5 19v10q-20 6 -43 16t-57 35t-59.5 57t-44.5 85.5t-19 117.5q0 148 120.5 249t299.5 101q99 0 180.5 -31.5t132.5 -82t79 -111.5t28 -123q0 -52 -12 -97.5t-32.5 -77.5t-44 -56.5t-50 -41t-46.5 -26t-38 -14.5v-10 q26 -4 57 -16.5t71 -41t72 -68.5t54 -105.5t22 -145.5q0 -76 -28.5 -141.5t-76 -111.5t-109 -79t-128 -48.5t-133.5 -15.5q-85 0 -167 25t-151 72.5t-111 126t-42 176.5zM276 399q0 -124 75.5 -194t207.5 -70q133 0 208 72t75 192q0 115 -75.5 190t-207.5 75 q-135 0 -209 -76.5t-74 -188.5zM330 1042q0 -98 63 -157.5t166 -59.5q101 0 165 59t64 158q0 98 -61.5 158t-167.5 60q-98 0 -163.5 -56.5t-65.5 -161.5z" />
<glyph unicode="9" d="M90 997q0 187 135.5 304.5t331.5 117.5q114 0 205 -38.5t148.5 -104t87.5 -148t30 -174.5q0 -122 -35.5 -248t-83 -220.5t-116.5 -192.5t-115.5 -152.5t-99.5 -113.5q-18 -19 -25 -27h-221q123 127 254.5 308.5t171.5 309.5v3q-104 -52 -213 -52q-87 0 -168 29.5 t-145 82.5t-103 135.5t-39 180.5zM281 995q0 -104 73.5 -184t206.5 -80q125 0 202 76.5t77 187.5q0 117 -78.5 191t-200.5 74t-201 -73t-79 -192z" />
<glyph unicode=":" horiz-adv-x="432" d="M123 82q0 47 34 81t81 34q46 0 79 -34t33 -81q0 -46 -33 -79.5t-79 -33.5q-47 0 -81 33.5t-34 79.5zM123 831q0 46 34 79.5t81 33.5q46 0 79 -33.5t33 -79.5q0 -47 -33 -80.5t-79 -33.5q-47 0 -81 33.5t-34 80.5z" />
<glyph unicode=";" horiz-adv-x="468" d="M82 -176l141 369h180l-204 -369h-117zM178 831q0 46 34 79.5t81 33.5t81 -33.5t34 -79.5q0 -47 -34 -80.5t-81 -33.5t-81 33.5t-34 80.5z" />
<glyph unicode="&#x3c;" d="M59 467v166l1000 502v-172l-830 -412l830 -412v-178z" />
<glyph unicode="=" d="M70 293v162h979v-162h-979zM70 674v160h979v-160h-979z" />
<glyph unicode="&#x3e;" d="M59 -39v178l828 412l-828 412v172l1000 -502v-166z" />
<glyph unicode="?" horiz-adv-x="849" d="M61 1284v164l11 2q10 3 22.5 5.5t31.5 6t40.5 7t45 6.5t50 4.5t51.5 1.5q92 0 168.5 -18.5t129 -50.5t88.5 -75t52.5 -90.5t16.5 -99.5q0 -26 -3.5 -50.5t-12.5 -47.5t-16.5 -41t-23.5 -38.5t-25 -32.5t-29 -31.5t-27.5 -27t-29.5 -26.5t-26 -23q-39 -35 -63 -61.5 t-51.5 -67t-41 -90.5t-13.5 -110v-68h-179v82q0 133 44.5 221t127.5 162q15 14 47 39.5t51.5 43t42 42.5t33.5 53t11 60q0 78 -75.5 135t-219.5 57q-99 0 -228 -43zM199 82q0 48 32.5 81.5t79.5 33.5t81 -34t34 -81t-34 -80t-81 -33t-79.5 33t-32.5 80z" />
<glyph unicode="@" horiz-adv-x="1804" d="M123 631q0 165 66.5 315.5t182 262t283 177.5t359.5 66q133 0 248 -35t198 -95.5t143 -141t89.5 -171.5t29.5 -186q0 -142 -55 -262t-165 -195t-253 -75q-87 0 -133 41t-53 92q0 -1 -5.5 -7.5t-10.5 -12.5t-15 -16t-19.5 -19t-24 -19.5t-29 -19.5t-33.5 -17.5t-39 -14.5 t-43.5 -9.5t-48.5 -3.5q-128 0 -206.5 84t-78.5 231q0 90 35.5 182t95 166t146.5 121t182 47t143 -37.5t62 -83.5h6q6 25 22 84h160l-152 -518q-14 -42 -14 -72q0 -37 22 -59t66 -22q119 0 204 112t85 285q0 101 -38.5 193.5t-110.5 166t-187.5 117t-257.5 43.5 q-128 0 -252 -50.5t-222.5 -139.5t-159 -223.5t-60.5 -290.5q0 -161 75 -285.5t204 -190t290 -65.5q156 0 342 84l49 -109l-16 -7q-16 -8 -31 -14.5t-42 -16.5t-58.5 -17.5t-70 -15t-86 -11.5t-97.5 -4q-164 0 -300 49.5t-228 137t-142.5 209.5t-50.5 266zM694 598 q0 -172 137 -172q80 0 145 59.5t98.5 146t33.5 175.5q0 164 -137 164q-106 0 -191.5 -117t-85.5 -256z" />
<glyph unicode="A" horiz-adv-x="1165" d="M-41 0l492 1450h262l493 -1450h-213l-131 395h-565l-131 -395h-207zM346 559h463l-225 676h-13z" />
<glyph unicode="B" horiz-adv-x="1107" d="M143 0v1450h424q205 0 323 -107t118 -264q0 -51 -9.5 -95.5t-23 -75.5t-34 -57.5t-37 -42t-38 -29t-31.5 -18t-22 -9.5v-7q17 -4 41 -13t63.5 -35t71 -61.5t55 -97.5t23.5 -137q0 -189 -137.5 -295t-358.5 -106h-428zM340 164h235q143 0 216 70.5t73 177.5q0 109 -74 178 t-227 69h-223v-495zM340 819h209q124 0 190 67t66 167q0 103 -66 168t-190 65h-209v-467z" />
<glyph unicode="C" horiz-adv-x="1040" d="M82 725q0 158 42.5 294.5t122.5 240t206 162.5t284 59q79 0 154.5 -14t107.5 -25v-182l-6 2q-6 2 -13.5 5t-19.5 6.5t-26 7.5t-30.5 8t-35 7.5t-38.5 6.5t-42 4.5t-43 1.5q-142 0 -248.5 -80t-160 -211.5t-53.5 -292.5q0 -159 52.5 -290t159 -212.5t250.5 -81.5 q31 0 64 3.5t59 8.5t51 11.5t40.5 12t27 9.5t12.5 4v-182q-31 -11 -108 -25t-154 -14q-157 0 -282.5 58.5t-206 161t-123.5 239.5t-43 297z" />
<glyph unicode="D" horiz-adv-x="1290" d="M143 0v1450h371q148 0 275 -50t220 -142t146 -229.5t53 -303.5q0 -115 -27 -221t-84 -198t-139.5 -160t-200 -107t-257.5 -39h-357zM340 164h131q253 0 393 151t140 410q0 141 -42 251t-115 176.5t-165.5 100t-200.5 33.5h-141v-1122z" />
<glyph unicode="E" horiz-adv-x="1067" d="M143 0v1450h830v-164h-633v-463h598v-164h-598v-495h645v-164h-842z" />
<glyph unicode="F" horiz-adv-x="1019" d="M143 0v1450h815v-164h-618v-483h561v-164h-561v-639h-197z" />
<glyph unicode="G" horiz-adv-x="1292" d="M82 725q0 165 47.5 301.5t140 238.5t238.5 159t332 57q163 0 313 -45v-195q-163 70 -330 70q-135 0 -240.5 -48t-169.5 -130.5t-97 -186t-33 -221.5q0 -120 34 -224.5t99 -185.5t167 -127.5t230 -46.5q75 0 160 17v479h-281v166h477v-783q-147 -51 -358 -51 q-179 0 -319.5 58t-229 160.5t-134.5 239t-46 298.5z" />
<glyph unicode="H" horiz-adv-x="1361" d="M143 0v1450h197v-635h682v635h197v-1450h-197v651h-682v-651h-197z" />
<glyph unicode="I" horiz-adv-x="483" d="M143 0v1450h197v-1450h-197z" />
<glyph unicode="J" horiz-adv-x="636" d="M0 -16v172l6 -2q5 -1 13.5 -3.5t19 -4.5t24.5 -3.5t27 -1.5q95 0 151 59.5t56 170.5v915h-137v164h334v-1088q0 -192 -100.5 -292.5t-280.5 -100.5q-53 0 -113 15z" />
<glyph unicode="K" horiz-adv-x="1120" d="M143 0v1450h197v-1450h-197zM360 756l492 694h233l-493 -694l528 -756h-243z" />
<glyph unicode="L" horiz-adv-x="958" d="M143 0v1450h197v-1286h618v-164h-815z" />
<glyph unicode="M" horiz-adv-x="1671" d="M143 0v1450h355l202 -588q91 -253 142 -497h6q16 83 51.5 206.5t62.5 206.5l27 82q97 286 201 590h338v-1450h-197v1282h-12l-375 -1106h-211l-379 1106h-14v-1282h-197z" />
<glyph unicode="N" horiz-adv-x="1343" d="M143 0v1450h328q125 -263 215 -455t118 -253l27 -60q57 -126 168 -410h11l-6 453v725h196v-1450h-272l-410 891q-78 168 -168 395h-10v-399v-887h-197z" />
<glyph unicode="O" horiz-adv-x="1429" d="M82 725q0 163 40 300t117.5 239t199 159.5t276.5 57.5q136 0 246 -44.5t181 -118t118.5 -173t67.5 -204t20 -216.5q0 -161 -40 -297.5t-117 -239.5t-199 -161t-277 -58q-201 0 -345.5 97.5t-216 266.5t-71.5 392zM287 725q0 -263 117 -423.5t311 -160.5q134 0 232.5 78.5 t147 209.5t48.5 296t-48 295.5t-146.5 209.5t-233.5 79q-87 0 -159 -32t-121 -87t-83 -130t-49.5 -159t-15.5 -176z" />
<glyph unicode="P" horiz-adv-x="1099" d="M143 0v1450h400q229 0 362 -120.5t133 -319.5q0 -202 -133 -320.5t-362 -118.5h-203v-571h-197zM340 735h186q147 0 227.5 75t80.5 200q0 55 -17 103t-53 87.5t-99.5 62.5t-148.5 23h-176v-551z" />
<glyph unicode="Q" horiz-adv-x="1429" d="M82 725q0 163 40 300t117.5 239t199 159.5t276.5 57.5q137 0 247 -44.5t180.5 -118t118 -173t67.5 -204t20 -216.5q0 -281 -118 -474t-325 -253v-6q60 4 119.5 6t89.5 2h29h141v-154h-569v123q-201 0 -345.5 97.5t-216 266.5t-71.5 392zM287 725q0 -262 116.5 -423 t311.5 -161q135 0 233.5 79.5t146.5 210t48 294.5t-47.5 295t-146 211t-234.5 80q-88 0 -160.5 -33t-121.5 -88.5t-82.5 -131t-48.5 -159t-15 -174.5z" />
<glyph unicode="R" d="M143 0v1450h426q225 0 359.5 -107t134.5 -299q0 -70 -18 -130t-47 -101t-67.5 -74t-75 -52t-75.5 -32.5t-64 -18.5t-44 -7q44 -65 426 -629h-226l-411 621v120q183 0 291 74t108 221q0 250 -315 250h-205v-1286h-197z" />
<glyph unicode="S" horiz-adv-x="1005" d="M82 1094q0 72 29 138.5t87 123.5t156.5 91t225.5 34q148 0 292 -41v-189l-18 7q-17 7 -42.5 15.5t-58 17t-72 14.5t-75.5 6q-88 0 -154 -19t-101.5 -51t-52.5 -68t-17 -75q0 -88 53.5 -140.5t159.5 -95.5q57 -21 106 -43q178 -71 261 -170.5t83 -255.5q0 -83 -32.5 -158 t-95 -135t-165 -95.5t-231.5 -35.5q-177 0 -326 41v185q162 -54 305 -54q164 0 256.5 71.5t92.5 180.5q0 90 -58 149.5t-166 102.5q-18 7 -66 26t-69 27q-46 19 -82 38t-81 53t-74 73.5t-49.5 100t-20.5 131.5z" />
<glyph unicode="T" horiz-adv-x="1054" d="M20 1286v164h1014v-164h-405v-1286h-197v1286h-412z" />
<glyph unicode="U" horiz-adv-x="1345" d="M143 494v956h197v-934q0 -103 27.5 -178.5t75.5 -117t104 -60.5t123 -19q53 0 100 11.5t91 39t75.5 69t50.5 107t19 148.5v934h196v-956q0 -242 -144.5 -383.5t-387.5 -141.5q-240 0 -383.5 141.5t-143.5 383.5z" />
<glyph unicode="V" horiz-adv-x="1107" d="M41 1450h209l301 -1233h10l309 1233h197l-379 -1450h-274z" />
<glyph unicode="W" horiz-adv-x="1767" d="M41 1450h203l147 -725q32 -181 98 -524h13l94 524q47 247 139 725h314l137 -725q29 -164 92 -532h14q28 161 53 294.5t35 186.5l11 53q32 171 141 723h194l-301 -1450h-299l-141 727q-39 208 -94 557h-14l-105 -557q-41 -206 -137 -727h-297z" />
<glyph unicode="X" horiz-adv-x="1097" d="M0 0l428 766l-375 684h232l270 -526l279 526h219l-377 -684l422 -766h-232l-315 594l-330 -594h-221z" />
<glyph unicode="Y" horiz-adv-x="1054" d="M41 1450h215l276 -741l283 741h199l-387 -971v-479h-197v479z" />
<glyph unicode="Z" horiz-adv-x="954" d="M41 0v168l645 1118h-618v164h825v-186l-637 -1100h657v-164h-872z" />
<glyph unicode="[" horiz-adv-x="614" d="M184 -422v1872h308v-123h-132v-1626h132v-123h-308z" />
<glyph unicode="\" horiz-adv-x="843" d="M41 1450h180l582 -1481h-182z" />
<glyph unicode="]" horiz-adv-x="512" d="M61 -299h132v1626h-132v123h308v-1872h-308v123z" />
<glyph unicode="^" d="M25 580l471 913h125l471 -911h-181l-354 712l-354 -714h-178z" />
<glyph unicode="_" horiz-adv-x="1054" d="M0 -178h1055v-107h-1055v107z" />
<glyph unicode="`" horiz-adv-x="522" d="M41 1450h227l213 -293h-149z" />
<glyph unicode="a" horiz-adv-x="940" d="M61 293q0 104 61 178.5t153 108.5t202 34h201v9q0 45 -13.5 82t-44.5 69t-88 50t-137 18q-60 0 -125.5 -9.5t-93 -16.5t-39.5 -11v174q1 0 16.5 3t33.5 6.5t45.5 8t53 7.5t54 5.5t51.5 2.5q234 0 350.5 -98.5t116.5 -284.5v-629h-170v106h-4q-8 -12 -15 -21.5t-33.5 -32 t-57 -37.5t-84 -27.5t-115.5 -12.5q-84 0 -154.5 33t-117 107t-46.5 178zM244 299q0 -73 53.5 -119.5t140.5 -46.5q114 0 177 73t63 175v88h-199q-124 0 -179.5 -47t-55.5 -123z" />
<glyph unicode="b" horiz-adv-x="1142" d="M41 1305v145h295v-557h4q103 119 289 119q190 0 311 -137.5t121 -380.5q0 -126 -35 -226.5t-95.5 -163.5t-137.5 -96t-164 -33q-185 0 -293 123h-4v-98h-174v1305h-117zM332 494q0 -157 71 -257t201 -100q129 0 201 96.5t72 260.5q0 171 -75.5 263.5t-197.5 92.5 q-123 0 -197.5 -95t-74.5 -261z" />
<glyph unicode="c" horiz-adv-x="765" d="M82 494q0 143 63.5 261t181.5 187.5t267 69.5q23 0 46 -1.5t40 -3.5t33 -5t25.5 -5t18 -4t9.5 -2v-172q-6 3 -24 9t-59.5 14t-82.5 8q-153 0 -244.5 -97t-91.5 -259q0 -157 91 -257t245 -100q88 0 166 31v-172q-84 -21 -172 -21q-150 0 -268 71t-181 189t-63 259z" />
<glyph unicode="d" horiz-adv-x="1087" d="M82 494q0 243 121 380.5t311 137.5q38 0 73 -5t62.5 -14.5t49 -19t40.5 -23t29 -21.5t22 -19.5t13 -12.5h4v408h-117v145h295v-1450h-172v98h-6q-108 -123 -293 -123q-87 0 -164 33t-137.5 96t-95.5 163.5t-35 226.5zM266 494q0 -165 76.5 -261t204.5 -96 q127 0 196.5 100t69.5 257q0 166 -73 261t-193 95q-123 0 -202 -90.5t-79 -265.5z" />
<glyph unicode="e" horiz-adv-x="1064" d="M82 494q0 147 52 263.5t156 185.5t245 69q193 0 320.5 -139.5t127.5 -376.5v-80h-715q11 -118 103 -200.5t250 -82.5q133 0 223 45v-176q-10 -3 -36 -8.5t-78.5 -12t-104.5 -6.5q-128 0 -232.5 41.5t-171.5 113.5t-103 165t-36 199zM264 565h535q-5 120 -75.5 202.5 t-188.5 82.5q-110 0 -187.5 -77t-83.5 -208z" />
<glyph unicode="f" horiz-adv-x="710" d="M41 842v145h117v133q0 67 25.5 127.5t72 107.5t119 75t160.5 28q27 0 60 -4.5t51.5 -8t23.5 -5.5v-150l-22 5q-21 5 -53 9.5t-58 4.5q-201 0 -201 -217v-1v-1v-1v-1v-1v-1v-1v-1v-1v-1v-1v-1v-1v-1v-1v-1v-1v-1v-1v-1v-1v-2v-1v-1v-1v-2v-1v-1v-2v-1v-1v-2v-1v-2v-1v-2 v-1v-2v-1v-2v-2v-1v-2v-2v-1v-2v-2v-2v-1v-2v-2v-2v-2v-2v-2v-1v-2v-3v-2v-2v-2v-2v-2v-2v-3v-9h252v-145h-252v-842h-178v842h-117z" />
<glyph unicode="g" horiz-adv-x="933" d="M20 -98q0 51 17 94.5t39.5 69.5t52 46.5t47 28.5t31.5 13q-48 21 -68 51q-22 33 -22 80q0 31 12 57.5t30.5 43.5t29 24t20.5 12q-1 1 -9 7.5t-14 12t-16.5 16.5t-19 22.5t-19 26.5t-18 33t-14 38.5t-10 45.5t-3.5 52q0 148 106 242t279 94q83 0 145 -25h306v-145h-54 q-65 0 -86 14l-4 -4q78 -78 78 -193q0 -142 -103.5 -231.5t-275.5 -89.5q-23 0 -46.5 2t-43 5t-33 6t-25 6t-12.5 3q-38 -19 -38 -57q0 -36 28 -54.5t96 -25.5q174 -18 218 -24q84 -9 147.5 -34.5t97.5 -56t55 -69.5t27 -68.5t6 -60.5q0 -137 -128.5 -225t-370.5 -88 q-111 0 -197 25.5t-136.5 69.5t-76 97t-25.5 113zM205 -82q0 -75 67.5 -124.5t200.5 -49.5q138 0 217.5 45t79.5 113q0 53 -48 94t-161 55q-28 3 -76.5 8.5t-90.5 11t-46 5.5q-53 -17 -98 -56.5t-45 -101.5zM270 676q0 -82 55 -137.5t146 -55.5q88 0 145.5 52.5t57.5 140.5 q0 76 -53.5 134t-149.5 58q-95 0 -148 -56t-53 -136z" />
<glyph unicode="h" horiz-adv-x="1026" d="M41 1305v145h295v-549h6q97 111 250 111q68 0 129 -22t112 -65.5t81 -117.5t30 -170v-637h-178v596q0 109 -59.5 177.5t-155.5 68.5q-93 0 -154 -65.5t-61 -180.5v-596h-178v1305h-117z" />
<glyph unicode="i" horiz-adv-x="448" d="M41 842v145h295v-987h-178v842h-117zM127 1339q0 50 35 85.5t84 35.5q51 0 86 -35.5t35 -85.5t-35 -85t-86 -35q-49 0 -84 35t-35 85z" />
<glyph unicode="j" horiz-adv-x="473" d="M-61 -225l5 -1q5 -2 13.5 -4t19 -3.5t24.5 -3t28 -1.5q64 0 108.5 42t44.5 128v910h-116v145h294v-1055q0 -154 -88.5 -242.5t-230.5 -88.5q-22 0 -46 2t-39.5 4t-16.5 2v166zM152 1337q0 51 34.5 86t85.5 35q50 0 84.5 -35t34.5 -86q0 -49 -34.5 -83.5t-84.5 -34.5 q-51 0 -85.5 34t-34.5 84z" />
<glyph unicode="k" horiz-adv-x="946" d="M41 1305v145h295v-1450h-178v1305h-117zM362 537l349 450h204l-346 -452l398 -535h-217z" />
<glyph unicode="l" horiz-adv-x="438" d="M41 1305v145h295v-1450h-178v1305h-117z" />
<glyph unicode="m" horiz-adv-x="1589" d="M41 842v145h281v-110h4q3 7 12 19.5t30.5 33.5t49 38.5t72 30.5t94.5 13q185 0 284 -154q9 15 17.5 27.5t34 38t54.5 43t77 31.5t102 14q68 0 128.5 -20.5t112.5 -61.5t82.5 -113.5t30.5 -167.5v-649h-178v604q0 112 -54 179t-149 67q-91 0 -147.5 -65.5t-56.5 -178.5 v-606h-179v604q0 110 -53.5 178t-148.5 68q-91 0 -148 -65.5t-57 -180.5v-604h-178v842h-117z" />
<glyph unicode="n" horiz-adv-x="1026" d="M41 842v145h281v-106h4q1 1 3 4q95 127 259 127q68 0 129.5 -22t113 -65.5t82.5 -117.5t31 -168v-639h-178v604q0 109 -59.5 177.5t-155.5 68.5q-93 0 -154 -65.5t-61 -180.5v-604h-178v842h-117z" />
<glyph unicode="o" horiz-adv-x="1093" d="M82 494q0 113 29.5 207t86 164t146 108.5t203.5 38.5q217 0 341 -139t124 -379q0 -248 -126 -383.5t-339 -135.5q-221 0 -343 141t-122 378zM264 494q0 -161 75 -259t208 -98q132 0 206 95.5t74 261.5t-75 261t-205 95q-134 0 -208.5 -98t-74.5 -258z" />
<glyph unicode="p" horiz-adv-x="1142" d="M41 842v145h291v-98h4q108 123 293 123q87 0 164 -33t137.5 -95.5t95.5 -163t35 -226.5q0 -243 -121 -381t-311 -138q-28 0 -54.5 3t-49 8.5t-42.5 12t-38 15.5t-31.5 16t-27 16.5t-20.5 14.5t-16 12.5t-10 8.5h-4v-473h-178v1233h-117zM332 494q0 -165 76.5 -261 t195.5 -96q118 0 195.5 93.5t77.5 263.5q0 162 -74 259t-199 97q-127 0 -199.5 -100t-72.5 -256z" />
<glyph unicode="q" horiz-adv-x="1122" d="M82 494q0 126 35 226.5t95.5 163t137.5 95.5t164 33q185 0 293 -123h6v98h289v-145h-117v-1233h-178v473h-4q-1 -1 -10 -8.5t-16 -12.5t-20.5 -14.5t-27 -16.5t-31.5 -16t-38 -15.5t-42.5 -12t-49 -8.5t-54.5 -3q-190 0 -311 138t-121 381zM266 494q0 -170 77.5 -263.5 t195.5 -93.5q120 0 197 96t77 261q0 155 -73.5 255.5t-200.5 100.5q-125 0 -199 -97t-74 -259z" />
<glyph unicode="r" horiz-adv-x="630" d="M41 842v145h268v-123h4l5 11q5 11 9 17.5t12.5 20t18 23t23.5 22t30.5 21.5t37 17t46 12t54.5 4q19 0 38.5 -2t31 -4t12.5 -2v-166q-36 12 -88 12q-98 0 -152.5 -72.5t-54.5 -206.5v-571h-178v842h-117z" />
<glyph unicode="s" horiz-adv-x="720" d="M61 737q0 36 9 71t34.5 73t64 66t103.5 46.5t148 18.5q36 0 70.5 -2t61 -5t45.5 -5.5t34 -5.5t16 -3v-176q-105 35 -219 35q-90 0 -136 -32.5t-46 -88.5q0 -26 14 -48.5t40 -39t48 -27t53 -22.5q62 -24 68 -27q26 -10 42.5 -17t46 -22.5t49 -30t43 -38.5t37.5 -49.5 t24 -61.5t10 -76q0 -140 -112 -217.5t-310 -77.5q-131 0 -205 21v176q10 -4 37 -11t83 -15.5t108 -8.5q98 0 156.5 35t58.5 96q0 28 -14.5 52.5t-41 43t-48.5 29.5t-52 23q-14 5 -80 30q-36 13 -64 26.5t-63 38.5t-58 54.5t-39 74t-16 97.5z" />
<glyph unicode="t" horiz-adv-x="579" d="M41 842v145h117v225h178v-225h235v-145h-235v-531q0 -95 42 -134.5t122 -39.5q60 0 80 10v-161q-44 -11 -99 -11q-323 0 -323 314v553h-117z" />
<glyph unicode="u" horiz-adv-x="1026" d="M41 842v145h295v-606q0 -113 60.5 -178.5t156.5 -65.5q87 0 150 62.5t63 181.5v606h178v-987h-162v98h-4q-11 -15 -26.5 -30.5t-46.5 -39.5t-78 -38.5t-101 -14.5q-170 0 -269 102.5t-99 274.5v490h-117z" />
<glyph unicode="v" horiz-adv-x="929" d="M61 987h191l149 -491q38 -126 91 -310h8q19 76 40.5 153t33.5 116l12 39q40 138 149 493h174l-305 -987h-229z" />
<glyph unicode="w" horiz-adv-x="1396" d="M61 987h185l119 -493q22 -91 65 -320h10l66 322q23 97 125 491h205l110 -493q27 -115 64 -320h10l67 322q37 146 123 491h166l-248 -987h-239l-109 453q-18 84 -55 299h-8q-15 -90 -29.5 -165.5t-21.5 -105.5l-7 -30q-32 -137 -106 -451h-242z" />
<glyph unicode="x" horiz-adv-x="911" d="M41 0l330 532l-289 455h201l198 -323l189 323h194l-286 -455l333 -532h-204l-238 387l-227 -387h-201z" />
<glyph unicode="y" horiz-adv-x="993" d="M82 987h186l242 -823h4l256 823h182l-444 -1378h-186l127 391h-74z" />
<glyph unicode="z" horiz-adv-x="800" d="M82 0v164l477 678h-459v145h656v-164l-480 -678h504v-145h-698z" />
<glyph unicode="{" horiz-adv-x="692" d="M41 459v127q82 6 136 70.5t54 177.5v348q0 81 22.5 137t60.5 83t76 37.5t83 10.5h96v-137h-24q-144 0 -144 -146v-333q0 -248 -184 -310v-4q184 -62 184 -309v-334q0 -84 41 -114.5t103 -30.5h24v-138h-96q-35 0 -65.5 6t-64 23.5t-57.5 46.5t-39.5 78.5t-15.5 114.5v348 q0 113 -54 177.5t-136 70.5z" />
<glyph unicode="|" horiz-adv-x="454" d="M143 -176v1626h168v-1626h-168z" />
<glyph unicode="}" horiz-adv-x="651" d="M82 -268h24q146 0 146 145v334q0 248 182 309v4q-182 61 -182 310v333q0 146 -146 146h-24v137h96q45 0 83 -10.5t76 -37.5t60.5 -83t22.5 -137v-348q0 -113 54 -177.5t136 -70.5v-127q-82 -6 -136 -70.5t-54 -177.5v-348q0 -65 -15.5 -114.5t-39.5 -78.5t-57.5 -46.5 t-64 -23.5t-65.5 -6h-96v138z" />
<glyph unicode="~" horiz-adv-x="1095" d="M82 580v159q118 70 237 70q60 0 126 -22.5t114 -49t110 -49t115 -22.5q74 0 137.5 25t92.5 50v-159q-109 -72 -244 -72q-54 0 -118.5 22.5t-115 50t-113.5 50t-114 22.5t-103 -15.5t-78 -30t-46 -29.5z" />
<glyph unicode="&#xa1;" horiz-adv-x="514" d="M143 899q0 46 34 79.5t81 33.5q46 0 79.5 -33.5t33.5 -79.5q0 -47 -33.5 -81t-79.5 -34q-47 0 -81 34t-34 81zM168 -469v1018h178v-1018h-178z" />
<glyph unicode="&#xa2;" d="M190 494q0 204 123 346.5t316 167.5v170h180v-174q48 -5 119 -29v-191q-1 0 -24 11.5t-49.5 23t-68 21.5t-79.5 10q-154 0 -244 -98.5t-90 -257.5q0 -155 89.5 -257t246.5 -102q42 0 84 10t66 21.5t45.5 23.5t23.5 13v-187q-40 -24 -119 -34v-181h-180v179 q-189 22 -314 166.5t-125 347.5z" />
<glyph unicode="&#xa3;" d="M184 0v145h31q75 0 107 35t32 113v389h-143v145h143v170q0 201 96 313.5t279 112.5q85 0 197 -28v-168q-105 35 -164 35q-227 0 -227 -271v-164h294v-145h-294v-260q0 -129 -16 -180.5t-58 -96.5h473v-145h-750z" />
<glyph unicode="&#xa5;" d="M45 1430h201l311 -717l334 717h180l-434 -889h248l2 -131h-252v-103h252l-2 -131h-250v-176h-178v176h-215v131h215v103h-215v131h215z" />
<glyph unicode="&#xa6;" horiz-adv-x="450" d="M143 -111v639h164v-639h-164zM143 911v639h164v-639h-164z" />
<glyph unicode="&#xa7;" horiz-adv-x="944" d="M82 670q0 49 14 93t33.5 72.5t44.5 53t41 35.5t29 18q-2 1 -23 17.5t-31.5 26.5t-30.5 33.5t-30.5 45.5t-19.5 56.5t-9 72.5q0 147 120.5 230t328.5 83q98 0 258 -32v-175q-3 1 -33 10t-59 16.5t-73.5 14.5t-84.5 7q-142 0 -205 -44t-63 -112q0 -27 12.5 -52t26.5 -40.5 t40.5 -33.5t37.5 -24t34 -18q90 -46 201 -100q2 -1 20.5 -10t31 -15.5t35 -21t39 -28.5t35.5 -37t31 -47t20.5 -56t8.5 -68q0 -49 -14.5 -93.5t-34 -73t-45 -53t-41 -35t-29.5 -17.5q144 -102 144 -244q0 -154 -116.5 -238t-344.5 -84q-141 0 -283 37v174q2 0 25 -7 t47.5 -13.5t58.5 -14t72.5 -12t73.5 -4.5q280 0 280 158q0 87 -139 158q-6 3 -92.5 46.5t-108.5 55.5l-20 9q-20 9 -32.5 15.5t-37 22t-41.5 29.5t-38 37.5t-33.5 48t-21.5 58t-9 69.5zM256 698q0 -34 15.5 -64t42 -52t46 -34.5t44.5 -25.5l8 -4q51 -24 145 -74 q20 11 28.5 16t31.5 22t35 32.5t23 41.5t11 54q0 29 -13.5 57t-28 45t-42.5 37t-38 25.5t-34 18.5l-71 35.5t-72 35.5q-22 -11 -37.5 -20.5t-40.5 -30t-39 -50t-14 -65.5z" />
<glyph unicode="&#xa8;" horiz-adv-x="808" d="M82 1382q0 47 34 81t81 34q46 0 79 -34t33 -81t-33 -80.5t-79 -33.5q-47 0 -81 33.5t-34 80.5zM498 1382q0 47 33.5 81t80.5 34t81 -34t34 -81t-34 -80.5t-81 -33.5t-80.5 33.5t-33.5 80.5z" />
<glyph unicode="&#xa9;" horiz-adv-x="829" d="M123 1161q0 121 85.5 206t207.5 85q120 0 205.5 -85t85.5 -206t-85.5 -207t-205.5 -86q-122 0 -207.5 86t-85.5 207zM158 1161q0 -107 75.5 -182.5t182.5 -75.5q106 0 181 75.5t75 182.5q0 106 -75 182t-181 76q-107 0 -182.5 -76t-75.5 -182zM266 1155q0 84 43.5 136 t126.5 52q40 0 68 -14v-37q-2 0 -12 3t-25 5.5t-29 2.5q-62 0 -93.5 -41t-31.5 -107q0 -64 30 -105.5t95 -41.5q17 0 42 4l24 4v-39q-1 0 -10 -2.5t-25 -5t-33 -2.5q-83 0 -126.5 52.5t-43.5 135.5z" />
<glyph unicode="&#xaa;" horiz-adv-x="565" d="M82 1063q0 85 61.5 123.5t159.5 38.5h72v4q0 92 -142 92q-54 0 -102 -12v102q2 1 19.5 4t46 5.5t53.5 2.5q124 0 178.5 -54.5t54.5 -143.5v-307h-104v43h-2l-3 -3q-2 -3 -5 -6t-8 -7.5t-11 -8.5t-14 -9t-18 -8.5t-21.5 -7t-25.5 -5t-29 -1.5q-66 0 -113 40.5t-47 117.5z M111 772v59h372v-59h-372zM195 1067q0 -35 23 -53.5t56 -18.5q52 0 77.5 35t25.5 86v29h-68q-54 0 -84 -21.5t-30 -56.5z" />
<glyph unicode="&#xab;" horiz-adv-x="940" d="M82 375l248 373h149l-246 -373l248 -375h-149zM459 375l250 373h147l-244 -373l246 -375h-147z" />
<glyph unicode="&#xac;" d="M70 481v162h979v-598h-162v436h-817z" />
<glyph unicode="&#xad;" horiz-adv-x="743" d="M143 481v162h519v-162h-519z" />
<glyph unicode="&#xae;" horiz-adv-x="829" d="M123 1161q0 121 85.5 206t207.5 85q120 0 205.5 -85t85.5 -206t-85.5 -207t-205.5 -86q-122 0 -207.5 86t-85.5 207zM158 1161q0 -107 75.5 -182.5t182.5 -75.5q106 0 181 75.5t75 182.5q0 106 -75 182t-181 76q-107 0 -182.5 -76t-75.5 -182zM311 985v358h111 q59 0 91 -28t32 -78t-32 -77.5t-67 -33.5q11 -14 107 -141h-49l-107 141v27q40 0 72.5 20.5t32.5 63.5q0 31 -19.5 52.5t-62.5 21.5h-68v-326h-41z" />
<glyph unicode="&#xaf;" horiz-adv-x="745" d="M82 1327v125h582v-125h-582z" />
<glyph unicode="&#xb0;" horiz-adv-x="782" d="M82 1112q0 129 90.5 219t218.5 90t218.5 -90t90.5 -219q0 -127 -90.5 -217t-218.5 -90t-218.5 90t-90.5 217zM190 1112q0 -83 59 -142t142 -59t142 59t59 142t-59 142t-142 59t-142 -59t-59 -142z" />
<glyph unicode="&#xb1;" d="M70 0v150h979v-150h-979zM70 608v150h409v354h160v-354h410v-150h-410v-354h-160v354h-409z" />
<glyph unicode="&#xb2;" horiz-adv-x="702" d="M123 578v116l219 271q10 12 31.5 38.5t32.5 41t25 37t20 45t6 47.5q0 59 -46 101t-128 42q-20 0 -42 -3t-40 -7.5t-32 -8.5t-24.5 -8t-11.5 -4v115q1 0 12 3t25 6t33 6t42.5 5t47.5 2q70 0 126.5 -16t92 -41.5t59.5 -59t33.5 -65.5t9.5 -65q0 -34 -6 -62.5t-23.5 -58.5 t-26 -43.5t-37 -49t-34.5 -42.5q-82 -107 -176 -230v-4h310v-108h-498z" />
<glyph unicode="&#xb3;" horiz-adv-x="729" d="M123 588v114q18 -7 70 -19.5t92 -12.5q88 0 135 40t47 109q0 66 -53 107t-140 41h-47v98h47q67 0 118.5 32t51.5 99q0 53 -45.5 87t-117.5 34q-39 0 -80.5 -12.5t-55.5 -20.5v113q7 3 30.5 8.5t64.5 11.5t75 6q119 0 194 -58.5t75 -154.5q0 -77 -44 -126.5t-98 -61.5v-6 q24 -3 50 -16.5t53 -36.5t44 -63t17 -89q0 -107 -79 -178.5t-205 -71.5q-45 0 -93 6.5t-71.5 11.5t-34.5 9z" />
<glyph unicode="&#xb4;" horiz-adv-x="395" d="M82 1075l102 320h129l-112 -320h-119z" />
<glyph unicode="&#xb5;" d="M106 842v145h295v-606q0 -113 60.5 -178.5t156.5 -65.5q87 0 150 62.5t63 181.5v606h179v-987h-162v98h-4q-11 -15 -26.5 -30.5t-46.5 -39.5t-78 -38.5t-101 -14.5q-108 0 -191 48v-383h-178v1202h-117z" />
<glyph unicode="&#xb6;" horiz-adv-x="1134" d="M82 1053q0 187 123.5 292t324.5 105h461v-1686h-172v1539h-225v-1539h-172v900q-37 6 -76.5 18.5t-88.5 42t-86.5 70t-63 108t-25.5 150.5z" />
<glyph unicode="&#xb7;" horiz-adv-x="567" d="M164 532q0 58 41 99t98 41q59 0 100 -41t41 -99t-41 -98.5t-100 -40.5q-57 0 -98 40.5t-41 98.5z" />
<glyph unicode="&#xb8;" horiz-adv-x="358" d="M0 -319q1 0 14.5 -5t29 -10t40 -9.5t47.5 -4.5q56 0 86.5 22t30.5 58q0 38 -25 59t-69 21q-13 0 -26 -3t-20.5 -6t-14 -6.5t-7.5 -3.5l-41 35l94 172h94l-81 -135q16 8 57 8q63 0 106 -32.5t43 -98.5q0 -77 -60 -121.5t-165 -44.5q-91 0 -133 21v84z" />
<glyph unicode="&#xb9;" horiz-adv-x="624" d="M123 1296v109h272v-727h107v-109h-371v109h125v618h-133z" />
<glyph unicode="&#xba;" horiz-adv-x="612" d="M82 1163q0 117 56.5 188.5t168.5 71.5q107 0 165 -70.5t58 -189.5t-59.5 -188.5t-163.5 -69.5q-112 0 -168.5 69t-56.5 189zM121 772v59h366v-59h-366zM195 1163q0 -69 29.5 -109t82.5 -40q51 0 81 39t30 110q0 70 -30.5 110t-80.5 40q-54 0 -83 -41t-29 -109z" />
<glyph unicode="&#xbb;" horiz-adv-x="940" d="M82 0l248 375l-246 373h149l248 -373l-250 -375h-149zM459 0l248 375l-246 373h149l248 -373l-250 -375h-149z" />
<glyph unicode="&#xbc;" horiz-adv-x="1564" d="M123 1296v109h272v-727h107v-109h-371v109h125v618h-133zM270 0l844 1405h141l-841 -1405h-144zM852 172v147l293 512h209v-550h88v-109h-88v-172h-137v172h-365zM965 281h252v434h-5z" />
<glyph unicode="&#xbd;" horiz-adv-x="1658" d="M123 1296v109h272v-727h107v-109h-371v109h125v618h-133zM299 0l842 1405h143l-844 -1405h-141zM1038 0v117l219 270q8 9 32.5 38t33.5 42t24.5 37t21 46t5.5 46q0 59 -46 101t-128 42q-59 0 -149 -30v114q1 0 11.5 3t24.5 6t32 6.5t41.5 5.5t47.5 2q87 0 153 -24 t101 -62.5t51.5 -79t16.5 -82.5q0 -34 -6.5 -63t-22.5 -57.5t-26 -44.5t-36 -48.5l-34 -42.5q-82 -106 -178 -229v-4h309v-109h-498z" />
<glyph unicode="&#xbe;" horiz-adv-x="1650" d="M123 588v114q18 -7 70 -19.5t92 -12.5q88 0 135 40t47 109q0 66 -53 107t-140 41h-47v98h47q67 0 118.5 32t51.5 99q0 53 -45.5 87t-117.5 34q-39 0 -80.5 -12.5t-55.5 -20.5v113q7 3 30.5 8.5t64.5 11.5t75 6q119 0 194 -58.5t75 -154.5q0 -77 -44 -126.5t-98 -61.5v-6 q24 -3 50 -16.5t53 -36.5t44 -63t17 -89q0 -107 -79 -178.5t-205 -71.5q-45 0 -93 6.5t-71.5 11.5t-34.5 9zM350 0l842 1405h143l-841 -1405h-144zM938 172v147l293 512h209v-550h88v-109h-88v-172h-137v172h-365zM1051 281h252v434h-5z" />
<glyph unicode="&#xbf;" horiz-adv-x="665" d="M0 -166q0 26 3.5 50.5t12.5 47.5t16.5 41t23.5 38.5t25 32.5t29 31.5t27.5 27t29.5 26.5t26 23q40 35 64.5 61.5t52.5 67t41.5 90.5t13.5 110v68h178v-82q0 -133 -45 -220.5t-127 -162.5q-15 -13 -48.5 -39.5t-52 -43.5t-41.5 -43t-34 -54t-11 -60q0 -77 76 -134.5 t221 -57.5q91 0 226 45v-164q-140 -35 -250 -35q-93 0 -170 19t-129 51t-88.5 75.5t-53 91t-16.5 99.5zM342 899q0 46 34 79.5t81 33.5t80.5 -33.5t33.5 -79.5q0 -47 -33.5 -81t-80.5 -34t-81 34t-34 81z" />
<glyph unicode="&#xc0;" horiz-adv-x="1165" d="M-41 0l492 1450h262l493 -1450h-213l-131 395h-565l-131 -395h-207zM346 559h463l-225 676h-13zM352 1903h209l201 -277h-135z" />
<glyph unicode="&#xc1;" horiz-adv-x="1165" d="M-41 0l492 1450h262l493 -1450h-213l-131 395h-565l-131 -395h-207zM346 559h463l-225 676h-13zM406 1626l200 277h211l-276 -277h-135z" />
<glyph unicode="&#xc2;" horiz-adv-x="1165" d="M-41 0l492 1450h262l493 -1450h-213l-131 395h-565l-131 -395h-207zM274 1626l213 277h168l217 -277h-155l-150 193l-149 -193h-144zM346 559h463l-225 676h-13z" />
<glyph unicode="&#xc3;" horiz-adv-x="1165" d="M-41 0l492 1450h262l493 -1450h-213l-131 395h-565l-131 -395h-207zM225 1630q3 31 13 62.5t29.5 63t56 51.5t84.5 20q63 0 153.5 -36t122.5 -36q40 0 62.5 27.5t27.5 52.5h100q-3 -29 -12 -58.5t-28.5 -63.5t-56 -55.5t-85.5 -21.5q-58 0 -150.5 37t-127.5 37 q-65 0 -92 -80h-97zM346 559h463l-225 676h-13z" />
<glyph unicode="&#xc4;" horiz-adv-x="1165" d="M-41 0l492 1450h262l493 -1450h-213l-131 395h-565l-131 -395h-207zM244 1733q0 47 33.5 80.5t80.5 33.5t81 -33.5t34 -80.5q0 -46 -34 -79.5t-81 -33.5t-80.5 33.5t-33.5 79.5zM346 559h463l-225 676h-13zM662 1733q0 47 33 80.5t79 33.5q47 0 81 -33.5t34 -80.5 q0 -46 -34 -79.5t-81 -33.5q-46 0 -79 33.5t-33 79.5z" />
<glyph unicode="&#xc5;" horiz-adv-x="1165" d="M-41 0l490 1444h262l489 -1444h-213l-129 393h-563l-129 -393h-207zM346 557h459l-225 672h-11zM369 1757q0 86 60 146.5t146 60.5t147.5 -60.5t61.5 -146.5t-61.5 -147.5t-147.5 -61.5t-146 61t-60 148zM451 1757q0 -53 36 -90t88 -37q53 0 90 37t37 90t-37 90t-90 37 q-52 0 -88 -37t-36 -90z" />
<glyph unicode="&#xc6;" horiz-adv-x="1810" d="M-41 0l907 1450h842v-164h-557v-463h530v-164h-530v-493h578v-166h-775v362h-522l-231 -362h-242zM528 530h426v699h-4z" />
<glyph unicode="&#xc7;" horiz-adv-x="1040" d="M82 725q0 158 42.5 294.5t122.5 240t206 162.5t284 59q79 0 154.5 -14t107.5 -25v-182l-6 2q-6 2 -13.5 5t-19.5 6.5t-26 7.5t-30.5 8t-35 7.5t-38.5 6.5t-42 4.5t-43 1.5q-142 0 -248.5 -80t-160 -211.5t-53.5 -292.5q0 -159 52.5 -290t159 -212.5t250.5 -81.5 q31 0 64 3.5t59 8.5t51 11.5t40.5 12t27 9.5t12.5 4v-182q-108 -32 -221 -39q-7 -14 -19.5 -36t-21.5 -38.5t-10 -17.5q16 8 57 8q63 0 106.5 -32.5t43.5 -98.5q0 -77 -59 -121.5t-164 -44.5q-94 0 -136 21v84q73 -29 134 -29q55 0 84.5 21.5t29.5 56.5q0 39 -24.5 60.5 t-67.5 21.5q-14 0 -27 -3t-20 -6t-13 -6.5t-7 -3.5l-41 35l71 129q-147 8 -264 69.5t-192.5 163.5t-115.5 235t-40 288z" />
<glyph unicode="&#xc8;" horiz-adv-x="1067" d="M143 0v1450h830v-164h-633v-463h598v-164h-598v-495h645v-164h-842zM326 1903h209l200 -279h-135z" />
<glyph unicode="&#xc9;" horiz-adv-x="1067" d="M143 0v1450h830v-164h-633v-463h598v-164h-598v-495h645v-164h-842zM446 1624l199 279h211l-276 -279h-134z" />
<glyph unicode="&#xca;" horiz-adv-x="1067" d="M143 0v1450h830v-164h-633v-463h598v-164h-598v-495h645v-164h-842zM258 1626l215 277h166l217 -277h-156l-149 193l-148 -193h-145z" />
<glyph unicode="&#xcb;" horiz-adv-x="1067" d="M143 0v1450h830v-164h-633v-463h598v-164h-598v-495h645v-164h-842zM227 1733q0 47 34 80.5t81 33.5t81 -33.5t34 -80.5q0 -46 -34 -79.5t-81 -33.5t-81 33.5t-34 79.5zM645 1733q0 47 33.5 80.5t79.5 33.5q47 0 80.5 -33.5t33.5 -80.5q0 -46 -33.5 -79.5t-80.5 -33.5 q-46 0 -79.5 33.5t-33.5 79.5z" />
<glyph unicode="&#xcc;" horiz-adv-x="483" d="M27 1903h209l200 -277h-133zM147 0v1450h197v-1450h-197z" />
<glyph unicode="&#xcd;" horiz-adv-x="483" d="M68 1626l200 277h209l-274 -277h-135zM154 0v1450h196v-1450h-196z" />
<glyph unicode="&#xce;" horiz-adv-x="483" d="M-27 1626l215 277h166l217 -277h-155l-150 193l-147 -193h-146zM162 0v1450h196v-1450h-196z" />
<glyph unicode="&#xcf;" horiz-adv-x="483" d="M-70 1733q0 47 33.5 80.5t79.5 33.5q47 0 81 -33.5t34 -80.5q0 -46 -34 -79.5t-81 -33.5q-46 0 -79.5 33.5t-33.5 79.5zM154 0v1450h198v-1450h-198zM346 1733q0 47 34 80.5t81 33.5t80.5 -33.5t33.5 -80.5q0 -46 -33.5 -79.5t-80.5 -33.5t-81 33.5t-34 79.5z" />
<glyph unicode="&#xd0;" horiz-adv-x="1339" d="M0 641v166h195v643h370q147 0 274 -50t219.5 -142t145.5 -229.5t53 -303.5q0 -115 -27 -221t-84 -198t-139 -160t-199.5 -107t-258.5 -39h-354v641h-195zM391 164h131q253 0 392 151t139 410q0 141 -41.5 251t-114 176.5t-165 100t-200.5 33.5h-141v-479h279v-166h-279 v-477z" />
<glyph unicode="&#xd1;" horiz-adv-x="1343" d="M143 0v1450h328q125 -263 215 -455t118 -253l27 -60q57 -126 168 -410h11l-6 453v725h196v-1450h-272l-410 891q-78 168 -168 395h-10v-399v-887h-197zM344 1608q3 32 12.5 62.5t29.5 62.5t56 51.5t84 19.5q62 0 153 -36.5t124 -36.5q40 0 62.5 27.5t27.5 53.5h100 q-2 -22 -7.5 -45t-19.5 -51.5t-33 -50t-51.5 -36.5t-72.5 -15q-58 0 -150 37t-127 37q-24 0 -42.5 -9.5t-29 -27.5t-13.5 -24t-7 -19h-96z" />
<glyph unicode="&#xd2;" horiz-adv-x="1429" d="M82 725q0 163 40 300t117.5 239t199 159.5t276.5 57.5q136 0 246 -44.5t181 -118t118.5 -173t67.5 -204t20 -216.5q0 -161 -40 -297.5t-117 -239.5t-199 -161t-277 -58q-201 0 -345.5 97.5t-216 266.5t-71.5 392zM287 725q0 -263 117 -423.5t311 -160.5q134 0 232.5 78.5 t147 209.5t48.5 296t-48 295.5t-146.5 209.5t-233.5 79q-87 0 -159 -32t-121 -87t-83 -130t-49.5 -159t-15.5 -176zM492 1903h208l201 -277h-135z" />
<glyph unicode="&#xd3;" horiz-adv-x="1429" d="M82 725q0 163 40 300t117.5 239t199 159.5t276.5 57.5q136 0 246 -44.5t181 -118t118.5 -173t67.5 -204t20 -216.5q0 -161 -40 -297.5t-117 -239.5t-199 -161t-277 -58q-201 0 -345.5 97.5t-216 266.5t-71.5 392zM287 725q0 -263 117 -423.5t311 -160.5q134 0 232.5 78.5 t147 209.5t48.5 296t-48 295.5t-146.5 209.5t-233.5 79q-87 0 -159 -32t-121 -87t-83 -130t-49.5 -159t-15.5 -176zM532 1626l201 277h211l-276 -277h-136z" />
<glyph unicode="&#xd4;" horiz-adv-x="1429" d="M82 725q0 163 40 300t117.5 239t199 159.5t276.5 57.5q136 0 246 -44.5t181 -118t118.5 -173t67.5 -204t20 -216.5q0 -161 -40 -297.5t-117 -239.5t-199 -161t-277 -58q-201 0 -345.5 97.5t-216 266.5t-71.5 392zM287 725q0 -263 117 -423.5t311 -160.5q134 0 232.5 78.5 t147 209.5t48.5 296t-48 295.5t-146.5 209.5t-233.5 79q-87 0 -159 -32t-121 -87t-83 -130t-49.5 -159t-15.5 -176zM430 1626l213 277h168l217 -277h-156l-149 193l-150 -193h-143z" />
<glyph unicode="&#xd5;" horiz-adv-x="1429" d="M82 725q0 163 40 300t117.5 239t199 159.5t276.5 57.5q136 0 246 -44.5t181 -118t118.5 -173t67.5 -204t20 -216.5q0 -161 -40 -297.5t-117 -239.5t-199 -161t-277 -58q-201 0 -345.5 97.5t-216 266.5t-71.5 392zM287 725q0 -263 117 -423.5t311 -160.5q134 0 232.5 78.5 t147 209.5t48.5 296t-48 295.5t-146.5 209.5t-233.5 79q-87 0 -159 -32t-121 -87t-83 -130t-49.5 -159t-15.5 -176zM375 1630q3 32 13 62.5t30 63t56.5 52t84.5 19.5q61 0 152.5 -36t124.5 -36q28 0 49 17t28.5 32t12.5 31h98q-3 -29 -12 -58.5t-28 -63.5t-55.5 -55.5 t-86.5 -21.5q-59 0 -151 37t-126 37q-24 0 -43 -10.5t-29 -25.5t-14.5 -26t-5.5 -18h-98z" />
<glyph unicode="&#xd6;" horiz-adv-x="1429" d="M82 725q0 163 40 300t117.5 239t199 159.5t276.5 57.5q136 0 246 -44.5t181 -118t118.5 -173t67.5 -204t20 -216.5q0 -161 -40 -297.5t-117 -239.5t-199 -161t-277 -58q-201 0 -345.5 97.5t-216 266.5t-71.5 392zM287 725q0 -263 117 -423.5t311 -160.5q134 0 232.5 78.5 t147 209.5t48.5 296t-48 295.5t-146.5 209.5t-233.5 79q-87 0 -159 -32t-121 -87t-83 -130t-49.5 -159t-15.5 -176zM387 1733q0 47 33.5 80.5t79.5 33.5q47 0 80.5 -33.5t33.5 -80.5q0 -46 -33.5 -79.5t-80.5 -33.5q-46 0 -79.5 33.5t-33.5 79.5zM803 1733q0 47 34 80.5 t81 33.5t79.5 -33.5t32.5 -80.5q0 -46 -32.5 -79.5t-79.5 -33.5t-81 33.5t-34 79.5z" />
<glyph unicode="&#xd7;" d="M37 145l412 412l-404 406l115 114l403 -405l408 405l104 -104l-405 -406l409 -411l-114 -113l-410 410l-412 -414z" />
<glyph unicode="&#xd8;" horiz-adv-x="1429" d="M82 725q0 163 40 300t117.5 239t199 159.5t276.5 57.5q177 0 309 -74l55 94l162 -98l-70 -117q91 -107 134 -253.5t43 -307.5t-40 -297.5t-117 -239.5t-199 -161t-277 -58q-163 0 -287 62l-55 -92l-164 98l65 108q-192 204 -192 580zM289 725q0 -251 100 -403l547 919 q-99 70 -221 70q-87 0 -159 -32.5t-120.5 -87.5t-82 -130.5t-49 -159.5t-15.5 -176zM514 197q86 -56 201 -56q133 0 231.5 78.5t147.5 209.5t49 296q0 225 -90 381z" />
<glyph unicode="&#xd9;" horiz-adv-x="1345" d="M143 494v956h197v-934q0 -103 27.5 -178.5t75.5 -117t104 -60.5t123 -19q53 0 100 11.5t91 39t75.5 69t50.5 107t19 148.5v934h196v-956q0 -242 -144.5 -383.5t-387.5 -141.5q-240 0 -383.5 141.5t-143.5 383.5zM455 1903h209l200 -279h-135z" />
<glyph unicode="&#xda;" horiz-adv-x="1345" d="M143 494v956h197v-934q0 -103 27.5 -178.5t75.5 -117t104 -60.5t123 -19q53 0 100 11.5t91 39t75.5 69t50.5 107t19 148.5v934h196v-956q0 -242 -144.5 -383.5t-387.5 -141.5q-240 0 -383.5 141.5t-143.5 383.5zM492 1624l200 279h209l-274 -279h-135z" />
<glyph unicode="&#xdb;" horiz-adv-x="1345" d="M143 494v956h197v-934q0 -103 27.5 -178.5t75.5 -117t104 -60.5t123 -19q53 0 100 11.5t91 39t75.5 69t50.5 107t19 148.5v934h196v-956q0 -242 -144.5 -383.5t-387.5 -141.5q-240 0 -383.5 141.5t-143.5 383.5zM393 1626l213 277h168l217 -277h-155l-150 193l-149 -193 h-144z" />
<glyph unicode="&#xdc;" horiz-adv-x="1345" d="M143 494v956h197v-934q0 -103 27.5 -178.5t75.5 -117t104 -60.5t123 -19q53 0 100 11.5t91 39t75.5 69t50.5 107t19 148.5v934h196v-956q0 -242 -144.5 -383.5t-387.5 -141.5q-240 0 -383.5 141.5t-143.5 383.5zM354 1733q0 47 34 80.5t81 33.5t81 -33.5t34 -80.5 t-34 -80t-81 -33t-81 33.5t-34 79.5zM772 1733q0 47 33.5 80.5t79.5 33.5q47 0 80.5 -33.5t33.5 -80.5q0 -46 -33.5 -79.5t-80.5 -33.5q-46 0 -79.5 33.5t-33.5 79.5z" />
<glyph unicode="&#xdd;" horiz-adv-x="1054" d="M41 1450h215l276 -741l283 741h199l-387 -971v-479h-197v479zM369 1626l200 277h211l-276 -277h-135z" />
<glyph unicode="&#xde;" horiz-adv-x="1245" d="M143 1305v145h295v-561h4q1 1 9 10t15.5 16t22.5 19.5t30.5 22t38.5 20.5t47.5 18t57.5 12t68 5q87 0 164 -33t137.5 -95.5t95.5 -163t35 -226.5q0 -243 -121 -381t-311 -138q-28 0 -54.5 3t-49 8.5t-42.5 12t-38 15.5t-31.5 16t-27 16.5t-20.5 14.5t-16 12.5t-10 8.5h-4 v-473h-178v1696h-117zM434 494q0 -165 77 -261t196 -96q118 0 195 93.5t77 263.5q0 162 -73.5 260t-198.5 98q-127 0 -200 -101t-73 -257z" />
<glyph unicode="&#xdf;" horiz-adv-x="1175" d="M184 0v975q0 109 27 194.5t68.5 137t98.5 85t111 46t111 12.5q108 0 198 -39t145.5 -117t55.5 -180q0 -36 -5.5 -68.5t-12.5 -56.5t-21.5 -46t-23.5 -35.5t-28.5 -28t-26.5 -20t-27 -15t-20.5 -9.5t-16.5 -6v-6q25 -5 51.5 -15t70 -39.5t75.5 -70.5t56 -114.5t24 -165.5 q0 -202 -134.5 -322.5t-336.5 -120.5q-91 0 -154 21v170q8 -4 26 -10t56 -13.5t74 -7.5q127 0 205.5 81.5t78.5 223.5q0 152 -87 233t-224 81h-39v123h47q91 0 150 59t59 160q0 93 -62.5 154t-156.5 61q-100 0 -167 -77t-67 -206v-1028h-178z" />
<glyph unicode="&#xe0;" horiz-adv-x="940" d="M61 293q0 104 61 178.5t153 108.5t202 34h201v9q0 45 -13.5 82t-44.5 69t-88 50t-137 18q-60 0 -125.5 -9.5t-93 -16.5t-39.5 -11v174q1 0 16.5 3t33.5 6.5t45.5 8t53 7.5t54 5.5t51.5 2.5q234 0 350.5 -98.5t116.5 -284.5v-629h-170v106h-4q-8 -12 -15 -21.5t-33.5 -32 t-57 -37.5t-84 -27.5t-115.5 -12.5q-84 0 -154.5 33t-117 107t-46.5 178zM223 1528h211l199 -277h-133zM244 299q0 -73 53.5 -119.5t140.5 -46.5q114 0 177 73t63 175v88h-199q-124 0 -179.5 -47t-55.5 -123z" />
<glyph unicode="&#xe1;" horiz-adv-x="940" d="M61 293q0 104 61 178.5t153 108.5t202 34h201v9q0 45 -13.5 82t-44.5 69t-88 50t-137 18q-60 0 -125.5 -9.5t-93 -16.5t-39.5 -11v174q1 0 16.5 3t33.5 6.5t45.5 8t53 7.5t54 5.5t51.5 2.5q234 0 350.5 -98.5t116.5 -284.5v-629h-170v106h-4q-8 -12 -15 -21.5t-33.5 -32 t-57 -37.5t-84 -27.5t-115.5 -12.5q-84 0 -154.5 33t-117 107t-46.5 178zM244 299q0 -73 53.5 -119.5t140.5 -46.5q114 0 177 73t63 175v88h-199q-124 0 -179.5 -47t-55.5 -123zM307 1251l201 277h209l-277 -277h-133z" />
<glyph unicode="&#xe2;" horiz-adv-x="940" d="M61 293q0 104 61 178.5t153 108.5t202 34h201v9q0 45 -13.5 82t-44.5 69t-88 50t-137 18q-60 0 -125.5 -9.5t-93 -16.5t-39.5 -11v174q1 0 16.5 3t33.5 6.5t45.5 8t53 7.5t54 5.5t51.5 2.5q234 0 350.5 -98.5t116.5 -284.5v-629h-170v106h-4q-8 -12 -15 -21.5t-33.5 -32 t-57 -37.5t-84 -27.5t-115.5 -12.5q-84 0 -154.5 33t-117 107t-46.5 178zM180 1251l215 277h166l217 -277h-155l-150 193l-147 -193h-146zM244 299q0 -73 53.5 -119.5t140.5 -46.5q114 0 177 73t63 175v88h-199q-124 0 -179.5 -47t-55.5 -123z" />
<glyph unicode="&#xe3;" horiz-adv-x="940" d="M61 293q0 104 61 178.5t153 108.5t202 34h201v9q0 45 -13.5 82t-44.5 69t-88 50t-137 18q-60 0 -125.5 -9.5t-93 -16.5t-39.5 -11v174q1 0 16.5 3t33.5 6.5t45.5 8t53 7.5t54 5.5t51.5 2.5q234 0 350.5 -98.5t116.5 -284.5v-629h-170v106h-4q-8 -12 -15 -21.5t-33.5 -32 t-57 -37.5t-84 -27.5t-115.5 -12.5q-84 0 -154.5 33t-117 107t-46.5 178zM121 1255q2 25 8 49.5t20 52t33.5 48t51.5 34t71 13.5q61 0 152.5 -36t124.5 -36q28 0 49 17t28.5 32t12.5 31h98q-2 -22 -7.5 -45t-19 -51.5t-33 -50t-51 -36.5t-71.5 -15q-59 0 -151 36.5 t-126 36.5q-67 0 -94 -80h-96zM244 299q0 -73 53.5 -119.5t140.5 -46.5q114 0 177 73t63 175v88h-199q-124 0 -179.5 -47t-55.5 -123z" />
<glyph unicode="&#xe4;" horiz-adv-x="940" d="M61 293q0 104 61 178.5t153 108.5t202 34h201v9q0 45 -13.5 82t-44.5 69t-88 50t-137 18q-60 0 -125.5 -9.5t-93 -16.5t-39.5 -11v174q1 0 16.5 3t33.5 6.5t45.5 8t53 7.5t54 5.5t51.5 2.5q234 0 350.5 -98.5t116.5 -284.5v-629h-170v106h-4q-8 -12 -15 -21.5t-33.5 -32 t-57 -37.5t-84 -27.5t-115.5 -12.5q-84 0 -154.5 33t-117 107t-46.5 178zM135 1358q0 47 34 81t81 34t81 -34t34 -81q0 -46 -34 -79.5t-81 -33.5t-81 33.5t-34 79.5zM244 299q0 -73 53.5 -119.5t140.5 -46.5q114 0 177 73t63 175v88h-199q-124 0 -179.5 -47t-55.5 -123z M553 1358q0 47 33.5 81t79.5 34q47 0 80.5 -34t33.5 -81q0 -46 -33.5 -79.5t-80.5 -33.5q-46 0 -79.5 33.5t-33.5 79.5z" />
<glyph unicode="&#xe5;" horiz-adv-x="927" d="M61 283q0 77 34.5 139t92.5 100t130.5 58t152.5 20h199v6q0 95 -64.5 156t-214.5 61q-59 0 -123.5 -9.5t-91.5 -16.5t-39 -11v172q165 33 248 33q231 0 346 -97.5t115 -281.5v-618h-168v104h-2q-1 -1 -3 -4q-10 -13 -18.5 -23t-35 -31t-56.5 -35t-80 -25t-108 -11 q-83 0 -152.5 33t-115.5 106t-46 175zM242 287q0 -70 53 -117t139 -47q111 0 173.5 72.5t62.5 173.5v88h-197q-122 0 -176.5 -47t-54.5 -123zM252 1364q0 85 60.5 145t146.5 60q85 0 145 -60t60 -145q0 -86 -60 -146.5t-145 -60.5q-86 0 -146.5 60.5t-60.5 146.5zM332 1364 q0 -52 37 -89.5t90 -37.5q51 0 88 37.5t37 89.5q0 51 -37 88t-88 37q-52 0 -89.5 -37t-37.5 -88z" />
<glyph unicode="&#xe6;" horiz-adv-x="1656" d="M61 295q0 121 96.5 195.5t272.5 74.5h248v58q0 45 -13.5 82t-44.5 69t-88 50t-137 18q-123 0 -258 -45v182q1 0 16.5 3t33.5 6.5t45.5 8t53 7.5t54 5.5t51.5 2.5q78 0 144 -13.5t105 -30.5t72.5 -43.5t47 -42.5t28.5 -38h5q117 168 333 168q193 0 321 -139.5t128 -376.5 v-80h-709q12 -119 100 -201t246 -82q56 0 111 11t77.5 19t35.5 15v-176q-10 -3 -36 -8.5t-78.5 -12t-104.5 -6.5q-100 0 -181.5 22.5t-132 59t-77 64.5t-44.5 57h-4q-27 -45 -39 -60q-116 -143 -344 -143q-149 0 -241.5 87t-92.5 233zM246 283q0 -150 186 -150q118 0 183 74 t65 174v35h-244q-90 0 -140 -39t-50 -94zM862 565h529q-5 120 -76 202.5t-189 82.5q-109 0 -183.5 -76.5t-80.5 -208.5z" />
<glyph unicode="&#xe7;" horiz-adv-x="765" d="M82 494q0 143 63.5 261t181.5 187.5t267 69.5q44 0 85 -4.5t60 -9t27 -7.5v-172q-93 31 -166 31q-152 0 -244 -98t-92 -258q0 -156 91 -256.5t245 -100.5q88 0 166 31v-172q-74 -21 -160 -21q-9 -16 -21.5 -38.5t-20.5 -37.5t-9 -16q16 8 57 8q62 0 106 -34.5t44 -96.5 q0 -76 -62.5 -121t-162.5 -45q-92 0 -134 21v84q58 -29 132 -29q52 0 84 22t32 56q0 39 -26 60.5t-68 21.5q-13 0 -26 -2.5t-20.5 -5.5t-14 -6.5t-7.5 -3.5l-40 34l75 134q-198 24 -320 169.5t-122 344.5z" />
<glyph unicode="&#xe8;" horiz-adv-x="1064" d="M82 494q0 148 52 264t156 185t245 69q193 0 320.5 -139.5t127.5 -376.5v-80h-715q11 -118 103 -200.5t250 -82.5q133 0 223 45v-176q-10 -3 -36 -8.5t-78.5 -12t-104.5 -6.5q-128 0 -232.5 41.5t-171.5 113.5t-103 165t-36 199zM264 565h535q-5 120 -75.5 202.5 t-188.5 82.5q-110 0 -187.5 -77t-83.5 -208zM309 1528h209l201 -277h-135z" />
<glyph unicode="&#xe9;" horiz-adv-x="1064" d="M82 494q0 148 52 264t156 185t245 69q193 0 320.5 -139.5t127.5 -376.5v-80h-715q11 -118 103 -200.5t250 -82.5q133 0 223 45v-176q-10 -3 -36 -8.5t-78.5 -12t-104.5 -6.5q-128 0 -232.5 41.5t-171.5 113.5t-103 165t-36 199zM264 565h535q-5 120 -75.5 202.5 t-188.5 82.5q-110 0 -187.5 -77t-83.5 -208zM352 1251l201 277h209l-275 -277h-135z" />
<glyph unicode="&#xea;" horiz-adv-x="1064" d="M82 494q0 148 52 264t156 185t245 69q193 0 320.5 -139.5t127.5 -376.5v-80h-715q11 -118 103 -200.5t250 -82.5q133 0 223 45v-176q-10 -3 -36 -8.5t-78.5 -12t-104.5 -6.5q-128 0 -232.5 41.5t-171.5 113.5t-103 165t-36 199zM244 1251l215 277h166l217 -277h-156 l-149 193l-148 -193h-145zM264 565h535q-5 120 -75.5 202.5t-188.5 82.5q-110 0 -187.5 -77t-83.5 -208z" />
<glyph unicode="&#xeb;" horiz-adv-x="1064" d="M82 494q0 148 52 264t156 185t245 69q193 0 320.5 -139.5t127.5 -376.5v-80h-715q11 -118 103 -200.5t250 -82.5q133 0 223 45v-176q-10 -3 -36 -8.5t-78.5 -12t-104.5 -6.5q-128 0 -232.5 41.5t-171.5 113.5t-103 165t-36 199zM213 1358q0 47 33.5 81t79.5 34 q47 0 80.5 -34t33.5 -81q0 -46 -33.5 -79.5t-80.5 -33.5q-46 0 -79.5 33.5t-33.5 79.5zM264 565h535q-5 120 -75.5 202.5t-188.5 82.5q-110 0 -187.5 -77t-83.5 -208zM629 1358q0 47 33.5 81t80.5 34q46 0 79.5 -34t33.5 -81q0 -46 -33.5 -79.5t-79.5 -33.5 q-47 0 -80.5 33.5t-33.5 79.5z" />
<glyph unicode="&#xec;" horiz-adv-x="448" d="M20 1528h209l201 -277h-133zM68 842v145h294v-987h-178v842h-116z" />
<glyph unicode="&#xed;" horiz-adv-x="448" d="M20 1251l201 277h209l-274 -277h-136zM76 842v145h297v-987h-180v842h-117z" />
<glyph unicode="&#xee;" horiz-adv-x="448" d="M-20 1251l215 277h165l218 -277h-156l-150 193l-147 -193h-145zM135 842v145h295v-987h-178v842h-117z" />
<glyph unicode="&#xef;" horiz-adv-x="448" d="M20 1358q0 47 34 81t81 34q46 0 79.5 -34t33.5 -81q0 -46 -33.5 -79.5t-79.5 -33.5q-47 0 -81 33.5t-34 79.5zM133 842v145h295v-987h-178v842h-117zM330 1358q0 47 33.5 81t80.5 34q46 0 79.5 -34t33.5 -81q0 -46 -33.5 -79.5t-79.5 -33.5q-47 0 -80.5 33.5t-33.5 79.5z " />
<glyph unicode="&#xf0;" horiz-adv-x="1093" d="M82 494q0 111 29 204.5t85 164t146 110t205 39.5q112 0 180 -41l4 4q-33 67 -88 141t-98 113l-135 -115l-82 96l129 111q-69 69 -138 115l97 118q77 -40 170 -124l135 114l82 -96l-127 -109q98 -106 155 -196q181 -288 181 -649q0 -239 -124 -379t-341 -140 q-222 0 -343.5 142t-121.5 377zM264 494q0 -161 75 -259t208 -98q132 0 206 95.5t74 261.5t-75 261t-205 95q-134 0 -208.5 -98t-74.5 -258z" />
<glyph unicode="&#xf1;" horiz-adv-x="1026" d="M41 842v145h281v-106h4q1 1 3 4q95 127 259 127q68 0 129.5 -22t113 -65.5t82.5 -117.5t31 -168v-639h-178v604q0 109 -59.5 177.5t-155.5 68.5q-93 0 -154 -65.5t-61 -180.5v-604h-178v842h-117zM199 1255q3 32 13 62.5t30 63t56.5 52t84.5 19.5q61 0 152 -36t124 -36 q28 0 49.5 17t29 32.5t12.5 30.5h98q-3 -29 -12 -58.5t-28 -63.5t-55.5 -55t-86.5 -21q-59 0 -151 36.5t-126 36.5q-24 0 -42.5 -9.5t-29 -27.5t-13.5 -24t-7 -19h-98z" />
<glyph unicode="&#xf2;" horiz-adv-x="1093" d="M82 494q0 113 29.5 207t86 164t146 108.5t203.5 38.5q217 0 341 -139t124 -379q0 -248 -126 -383.5t-339 -135.5q-221 0 -343 141t-122 378zM264 494q0 -161 75 -259t208 -98q132 0 206 95.5t74 261.5t-75 261t-205 95q-134 0 -208.5 -98t-74.5 -258zM326 1528h209 l200 -277h-135z" />
<glyph unicode="&#xf3;" horiz-adv-x="1093" d="M82 494q0 113 29.5 207t86 164t146 108.5t203.5 38.5q217 0 341 -139t124 -379q0 -248 -126 -383.5t-339 -135.5q-221 0 -343 141t-122 378zM264 494q0 -161 75 -259t208 -98q132 0 206 95.5t74 261.5t-75 261t-205 95q-134 0 -208.5 -98t-74.5 -258zM362 1251l201 277 h209l-274 -277h-136z" />
<glyph unicode="&#xf4;" horiz-adv-x="1093" d="M82 494q0 113 29.5 207t86 164t146 108.5t203.5 38.5q217 0 341 -139t124 -379q0 -248 -126 -383.5t-339 -135.5q-221 0 -343 141t-122 378zM256 1251l215 277h166l217 -277h-156l-149 193l-148 -193h-145zM264 494q0 -161 75 -259t208 -98q132 0 206 95.5t74 261.5 t-75 261t-205 95q-134 0 -208.5 -98t-74.5 -258z" />
<glyph unicode="&#xf5;" horiz-adv-x="1093" d="M82 494q0 113 29.5 207t86 164t146 108.5t203.5 38.5q217 0 341 -139t124 -379q0 -248 -126 -383.5t-339 -135.5q-221 0 -343 141t-122 378zM209 1255q3 32 13 62.5t30 63t56.5 52t84.5 19.5q61 0 152.5 -36t124.5 -36q28 0 49 17t28.5 32t12.5 31h98q-3 -29 -12 -58.5 t-28 -63.5t-55.5 -55t-86.5 -21q-59 0 -151 36.5t-126 36.5q-24 0 -43 -10.5t-29 -25.5t-14.5 -26t-5.5 -18h-98zM264 494q0 -161 75 -259t208 -98q132 0 206 95.5t74 261.5t-75 261t-205 95q-134 0 -208.5 -98t-74.5 -258z" />
<glyph unicode="&#xf6;" horiz-adv-x="1093" d="M82 494q0 113 29.5 207t86 164t146 108.5t203.5 38.5q217 0 341 -139t124 -379q0 -248 -126 -383.5t-339 -135.5q-221 0 -343 141t-122 378zM221 1358q0 47 33.5 81t79.5 34q47 0 81 -34t34 -81q0 -46 -34 -79.5t-81 -33.5q-46 0 -79.5 33.5t-33.5 79.5zM264 494 q0 -161 75 -259t208 -98q132 0 206 95.5t74 261.5t-75 261t-205 95q-134 0 -208.5 -98t-74.5 -258zM637 1358q0 47 34 81t81 34q46 0 79 -34t33 -81q0 -46 -33 -79.5t-79 -33.5q-47 0 -81 33.5t-34 79.5z" />
<glyph unicode="&#xf7;" d="M70 481v162h979v-162h-979zM440 213q0 49 35 84t84 35q51 0 86 -34.5t35 -84.5t-35 -85.5t-86 -35.5q-49 0 -84 35.5t-35 85.5zM440 909q0 49 35 84t84 35q51 0 86 -34.5t35 -84.5q0 -51 -35 -86t-86 -35q-50 0 -84.5 35t-34.5 86z" />
<glyph unicode="&#xf8;" horiz-adv-x="1093" d="M82 494q0 113 29.5 207t86 164t146 108.5t203.5 38.5q105 0 192 -35l54 92l133 -80l-58 -96q144 -141 144 -399q0 -248 -126 -383.5t-339 -135.5q-118 0 -203 39l-49 -84l-133 80l53 92q-133 139 -133 392zM264 494q0 -140 58 -232l337 567q-57 21 -112 21 q-134 0 -208.5 -98t-74.5 -258zM426 164q50 -27 121 -27q131 0 205.5 96t74.5 261q0 145 -61 243z" />
<glyph unicode="&#xf9;" horiz-adv-x="1026" d="M41 842v145h295v-606q0 -113 60.5 -178.5t156.5 -65.5q87 0 150 62.5t63 181.5v606h178v-987h-162v98h-4q-11 -15 -26.5 -30.5t-46.5 -39.5t-78 -38.5t-101 -14.5q-170 0 -269 102.5t-99 274.5v490h-117zM324 1528h208l201 -277h-135z" />
<glyph unicode="&#xfa;" horiz-adv-x="1026" d="M41 842v145h295v-606q0 -113 60.5 -178.5t156.5 -65.5q87 0 150 62.5t63 181.5v606h178v-987h-162v98h-4q-11 -15 -26.5 -30.5t-46.5 -39.5t-78 -38.5t-101 -14.5q-170 0 -269 102.5t-99 274.5v490h-117zM365 1251l200 277h209l-274 -277h-135z" />
<glyph unicode="&#xfb;" horiz-adv-x="1026" d="M41 842v145h295v-606q0 -113 60.5 -178.5t156.5 -65.5q87 0 150 62.5t63 181.5v606h178v-987h-162v98h-4q-11 -15 -26.5 -30.5t-46.5 -39.5t-78 -38.5t-101 -14.5q-170 0 -269 102.5t-99 274.5v490h-117zM217 1251l215 277h166l217 -277h-153l-152 193l-148 -193h-145z " />
<glyph unicode="&#xfc;" horiz-adv-x="1026" d="M41 842v145h295v-606q0 -113 60.5 -178.5t156.5 -65.5q87 0 150 62.5t63 181.5v606h178v-987h-162v98h-4q-11 -15 -26.5 -30.5t-46.5 -39.5t-78 -38.5t-101 -14.5q-170 0 -269 102.5t-99 274.5v490h-117zM221 1358q0 47 33.5 81t79.5 34q47 0 81 -34t34 -81 q0 -46 -34 -79.5t-81 -33.5q-46 0 -79.5 33.5t-33.5 79.5zM637 1358q0 47 34 81t81 34t79.5 -33.5t32.5 -81.5q0 -46 -32.5 -79.5t-79.5 -33.5t-81 33.5t-34 79.5z" />
<glyph unicode="&#xfd;" horiz-adv-x="993" d="M82 987h186l242 -823h4l256 823h182l-444 -1378h-186l127 391h-74zM346 1251l199 277h211l-277 -277h-133z" />
<glyph unicode="&#xfe;" horiz-adv-x="1060" d="M41 1305v145h313v-569h203q229 0 362.5 -121.5t133.5 -319.5q0 -202 -133.5 -321t-362.5 -119h-203v-391h-196v1696h-117zM354 164h187q147 0 227 75t80 201q0 55 -17.5 102t-53.5 87t-99.5 63t-147.5 23h-176v-551z" />
<glyph unicode="&#xff;" horiz-adv-x="993" d="M82 987h186l242 -823h4l256 823h182l-444 -1378h-186l127 391h-74zM203 1360q0 46 33 79.5t79 33.5q47 0 81 -33.5t34 -79.5q0 -47 -34 -81t-81 -34q-46 0 -79 34t-33 81zM618 1360q0 46 34 79.5t81 33.5t80 -33.5t33 -79.5q0 -47 -33 -81t-80 -34t-81 34t-34 81z" />
<glyph unicode="&#x152;" horiz-adv-x="2004" d="M82 725q0 163 40 300t117.5 239t199 159.5t276.5 57.5q252 0 415 -160h7v129h774v-164h-578v-463h543v-164h-543v-495h590v-164h-786v129h-7q-167 -160 -415 -160q-201 0 -345.5 97.5t-216 266.5t-71.5 392zM287 725q0 -263 117 -423.5t311 -160.5q134 0 232.5 78.5 t147 209.5t48.5 296t-48 295.5t-146.5 209.5t-233.5 79q-87 0 -159 -32t-121 -87t-83 -130t-49.5 -159t-15.5 -176z" />
<glyph unicode="&#x153;" horiz-adv-x="1796" d="M82 494q0 237 122 377.5t343 140.5q249 0 364 -178h7q11 19 26 38.5t45.5 46t67 46t91.5 33.5t118 14q193 0 320.5 -139.5t127.5 -376.5v-80h-706q0 -9 -2 -13q16 -115 104.5 -192.5t241.5 -77.5q133 0 223 45v-176q-10 -3 -36 -8.5t-78.5 -12t-104.5 -6.5 q-78 0 -146.5 15.5t-112.5 36.5t-81.5 51t-55 50t-32.5 42h-6q-16 -26 -26.5 -40.5t-44.5 -48t-70 -53t-98.5 -36.5t-135.5 -17q-151 0 -257.5 68t-157 183.5t-50.5 267.5zM264 494q0 -161 75 -259t208 -98q132 0 206 95.5t74 261.5t-75 261t-205 95q-134 0 -208.5 -98 t-74.5 -258zM1001 565h529q-5 120 -75.5 202.5t-188.5 82.5q-109 0 -184 -77t-81 -208z" />
<glyph unicode="&#x178;" horiz-adv-x="1054" d="M41 1450h215l276 -741l283 741h199l-387 -971v-479h-197v479zM207 1733q0 47 34 80.5t81 33.5q46 0 79 -33.5t33 -80.5t-33 -80t-79 -33q-47 0 -81 33t-34 80zM623 1733q0 47 33.5 80.5t80.5 33.5t81 -33.5t34 -80.5t-34 -80t-81 -33t-80.5 33t-33.5 80z" />
<glyph unicode="&#x2c6;" horiz-adv-x="761" d="M82 1174l215 276h166l217 -276h-156l-149 192l-148 -192h-145z" />
<glyph unicode="&#x2dc;" horiz-adv-x="813" d="M82 1243q3 32 13 63.5t29.5 63.5t56.5 52t85 20q61 0 152.5 -37t124.5 -37q27 0 48 17t29.5 32.5t12.5 30.5h98q-3 -29 -12 -58.5t-28.5 -63t-56 -54.5t-85.5 -21q-59 0 -151 37t-126 37q-67 0 -94 -82h-96z" />
<glyph unicode="&#x2000;" horiz-adv-x="982" />
<glyph unicode="&#x2001;" horiz-adv-x="1964" />
<glyph unicode="&#x2002;" horiz-adv-x="982" />
<glyph unicode="&#x2003;" horiz-adv-x="1964" />
<glyph unicode="&#x2004;" horiz-adv-x="654" />
<glyph unicode="&#x2005;" horiz-adv-x="491" />
<glyph unicode="&#x2006;" horiz-adv-x="327" />
<glyph unicode="&#x2007;" horiz-adv-x="327" />
<glyph unicode="&#x2008;" horiz-adv-x="245" />
<glyph unicode="&#x2009;" horiz-adv-x="392" />
<glyph unicode="&#x200a;" horiz-adv-x="109" />
<glyph unicode="&#x2010;" horiz-adv-x="743" d="M143 481v162h519v-162h-519z" />
<glyph unicode="&#x2011;" horiz-adv-x="743" d="M143 481v162h519v-162h-519z" />
<glyph unicode="&#x2012;" horiz-adv-x="743" d="M143 481v162h519v-162h-519z" />
<glyph unicode="&#x2013;" horiz-adv-x="1277" d="M143 481v162h1053v-162h-1053z" />
<glyph unicode="&#x2014;" horiz-adv-x="2017" d="M143 481v162h1792v-162h-1792z" />
<glyph unicode="&#x2018;" horiz-adv-x="448" d="M61 1036l138 400h127l-88 -400h-177z" />
<glyph unicode="&#x2019;" horiz-adv-x="407" d="M82 1036l88 400h176l-137 -400h-127z" />
<glyph unicode="&#x201a;" horiz-adv-x="382" d="M0 -182l141 368h181l-205 -368h-117z" />
<glyph unicode="&#x201c;" horiz-adv-x="794" d="M61 1036l138 400h127l-88 -400h-177zM410 1036l137 400h125l-88 -400h-174z" />
<glyph unicode="&#x201d;" horiz-adv-x="753" d="M82 1036l88 400h176l-137 -400h-127zM430 1036l88 400h174l-137 -400h-125z" />
<glyph unicode="&#x201e;" horiz-adv-x="753" d="M0 -182l141 368h181l-205 -368h-117zM371 -182l141 368h180l-205 -368h-116z" />
<glyph unicode="&#x2022;" horiz-adv-x="712" d="M164 532q0 88 62.5 150.5t150.5 62.5t150.5 -62.5t62.5 -150.5t-62.5 -150.5t-150.5 -62.5t-150.5 62.5t-62.5 150.5z" />
<glyph unicode="&#x2026;" horiz-adv-x="1579" d="M82 82q0 47 34 81t81 34q46 0 79 -34t33 -81q0 -46 -33 -79.5t-79 -33.5q-47 0 -81 33.5t-34 79.5zM676 82q0 47 34 81t81 34q46 0 79 -34t33 -81q0 -46 -33 -79.5t-79 -33.5q-47 0 -81 33.5t-34 79.5zM1270 82q0 47 33.5 81t80.5 34q46 0 79.5 -34t33.5 -81 q0 -46 -33.5 -79.5t-79.5 -33.5q-47 0 -80.5 33.5t-33.5 79.5z" />
<glyph unicode="&#x202f;" horiz-adv-x="392" />
<glyph unicode="&#x2039;" horiz-adv-x="542" d="M61 375l248 373h150l-246 -373l248 -375h-150z" />
<glyph unicode="&#x203a;" horiz-adv-x="542" d="M82 0l248 375l-246 373h149l248 -373l-250 -375h-149z" />
<glyph unicode="&#x205f;" horiz-adv-x="491" />
<glyph unicode="&#x20ac;" d="M29 479l82 144h90q-2 25 -2 73q0 59 2 90h-164l82 144h104q49 225 204.5 359t399.5 134q130 0 260 -39v-180l-17 6q-16 7 -40 15.5t-56 17t-72.5 14t-80.5 5.5q-150 0 -257.5 -87.5t-145.5 -244.5h565l-84 -144h-508q-4 -62 -4 -90q0 -23 4 -73h449l-84 -144h-342 q34 -147 143.5 -248.5t263.5 -101.5q62 0 127.5 13t98.5 25t40 17v-176q-31 -11 -107.5 -25t-152.5 -14q-125 0 -230.5 40t-180 110t-123.5 161t-72 199h-192z" />
<glyph unicode="&#x2122;" horiz-adv-x="931" d="M82 1382v37h285v-37h-119v-362h-45v362h-121zM444 1020v399h76l107 -327l110 327h72v-399h-45v342h-4l-115 -342h-41l-112 338h-5v-338h-43z" />
<glyph unicode="&#x25fc;" horiz-adv-x="983" d="M0 0v983h983v-983h-983z" />
</font>
</defs>
</svg>
